<svg width="100" height="100" viewBox="0 0 100 100" fill="none" xmlns="http://www.w3.org/2000/svg">
<rect width="100" height="100" rx="10" fill="#CFE49C"/>
<path d="M23.0162 74.375L22.6945 74.6968C17.2455 80.1455 14.521 82.8703 15.4799 85.1851C16.4388 87.5 20.2918 87.5 27.9978 87.5H54.8911" stroke="black" stroke-width="1.5" stroke-linecap="round" stroke-linejoin="round"/>
<path d="M23.1319 62.7084L47.2018 35L62.2018 50L34.4818 74.0622L34.4686 74.0737C34.1175 74.3785 33.9399 74.5325 33.7799 74.6566C30.917 76.8796 26.8742 76.7368 24.1751 74.318C24.0249 74.1835 23.8596 74.0183 23.5343 73.6932L23.5167 73.6756C23.1796 73.3385 23.0111 73.1698 22.8741 73.0171C20.4546 70.3171 20.3127 66.2731 22.5369 63.4104C22.6629 63.248 22.8192 63.068 23.1319 62.7084Z" fill="white" stroke="black" stroke-width="1.5" stroke-linecap="round" stroke-linejoin="round"/>
<path d="M79.1885 44.5081C71.8663 51.8308 59.9941 51.8308 52.6719 44.5081C45.3496 37.1859 45.3496 25.3141 52.6719 17.9918C59.9941 10.6694 71.8663 10.6694 79.1885 17.9918C86.5108 25.3141 86.5108 37.1859 79.1885 44.5081Z" fill="white" stroke="black" stroke-width="1.5"/>
<circle cx="79.6341" cy="33.5366" r="2.19512" fill="black"/>
<path d="M78.5938 41.7073C75.5206 46.0976 69.9474 47.7439 67.7523 48.1098C63.362 41.5244 65.1913 33.2927 66.6547 30L78.5938 41.7073Z" fill="black"/>
</svg>
